<svg id="visual" viewBox="0 0 900 450" width="900" height="450" xmlns="http://www.w3.org/2000/svg" xmlns:xlink="http://www.w3.org/1999/xlink" version="1.1"><path d="M0 272L21.5 279.3C43 286.7 86 301.3 128.8 310C171.7 318.7 214.3 321.3 257.2 318.2C300 315 343 306 385.8 306.2C428.7 306.3 471.3 315.7 514.2 321.3C557 327 600 329 642.8 323.5C685.7 318 728.3 305 771.2 298.7C814 292.3 857 292.7 878.5 292.8L900 293L900 451L878.5 451C857 451 814 451 771.2 451C728.3 451 685.7 451 642.8 451C600 451 557 451 514.2 451C471.3 451 428.7 451 385.8 451C343 451 300 451 257.2 451C214.3 451 171.7 451 128.8 451C86 451 43 451 21.5 451L0 451Z" fill="#32c373"></path><path d="M0 336L21.5 338.8C43 341.7 86 347.3 128.8 342C171.7 336.7 214.3 320.3 257.2 310.7C300 301 343 298 385.8 302.7C428.7 307.3 471.3 319.7 514.2 321.5C557 323.3 600 314.7 642.8 317.5C685.7 320.3 728.3 334.7 771.2 334.5C814 334.3 857 319.7 878.5 312.3L900 305L900 451L878.5 451C857 451 814 451 771.2 451C728.3 451 685.7 451 642.8 451C600 451 557 451 514.2 451C471.3 451 428.7 451 385.8 451C343 451 300 451 257.2 451C214.3 451 171.7 451 128.8 451C86 451 43 451 21.5 451L0 451Z" fill="#2cac65"></path><path d="M0 375L21.5 374.5C43 374 86 373 128.8 370.7C171.7 368.3 214.3 364.7 257.2 366C300 367.3 343 373.7 385.8 374.2C428.7 374.7 471.3 369.3 514.2 368.3C557 367.3 600 370.7 642.8 369.5C685.7 368.3 728.3 362.7 771.2 358.2C814 353.7 857 350.3 878.5 348.7L900 347L900 451L878.5 451C857 451 814 451 771.2 451C728.3 451 685.7 451 642.8 451C600 451 557 451 514.2 451C471.3 451 428.7 451 385.8 451C343 451 300 451 257.2 451C214.3 451 171.7 451 128.8 451C86 451 43 451 21.5 451L0 451Z" fill="#269557"></path><path d="M0 400L21.5 395.5C43 391 86 382 128.8 381.3C171.7 380.7 214.3 388.3 257.2 393.3C300 398.3 343 400.7 385.8 398C428.7 395.3 471.3 387.7 514.2 387.5C557 387.3 600 394.7 642.8 394.3C685.7 394 728.3 386 771.2 385.3C814 384.7 857 391.3 878.5 394.7L900 398L900 451L878.5 451C857 451 814 451 771.2 451C728.3 451 685.7 451 642.8 451C600 451 557 451 514.2 451C471.3 451 428.7 451 385.8 451C343 451 300 451 257.2 451C214.3 451 171.7 451 128.8 451C86 451 43 451 21.5 451L0 451Z" fill="#207f49"></path><path d="M0 416L21.5 412.8C43 409.7 86 403.3 128.8 401.8C171.7 400.3 214.3 403.7 257.2 407.8C300 412 343 417 385.8 419C428.7 421 471.3 420 514.2 418.2C557 416.3 600 413.7 642.8 411C685.7 408.3 728.3 405.7 771.2 404C814 402.3 857 401.7 878.5 401.3L900 401L900 451L878.5 451C857 451 814 451 771.2 451C728.3 451 685.7 451 642.8 451C600 451 557 451 514.2 451C471.3 451 428.7 451 385.8 451C343 451 300 451 257.2 451C214.3 451 171.7 451 128.8 451C86 451 43 451 21.5 451L0 451Z" fill="#1a6a3c"></path></svg>